<svg width="24" height="24" viewBox="0 0 24 24" fill="none" xmlns="http://www.w3.org/2000/svg">
<path fill-rule="evenodd" clip-rule="evenodd" d="M11.7503 2.03117C11.8661 2.00144 12.0116 1.98604 12.177 2.01611C12.444 2.06464 12.6222 2.20369 12.7276 2.31594C13.1973 2.81289 13.0284 3.60056 12.4603 3.89176C12.2961 3.99944 11.8588 4.29618 11.4274 4.67401C11.1517 4.91555 10.9086 5.1641 10.7421 5.39348C10.58 5.6167 10.5572 5.73005 10.5541 5.74507C10.5538 5.74687 10.5537 5.74726 10.5537 5.74627C10.5537 6.24565 10.6131 6.54157 10.6687 6.70387C10.6887 6.76218 10.7362 6.86011 10.8343 7.02023C10.896 7.1208 10.951 7.20486 11.0136 7.30046C11.0611 7.37298 11.113 7.45214 11.1753 7.55018C11.3895 7.88697 11.7723 8.49655 11.769 9.17833C11.7583 11.413 11.7388 15.5504 11.7375 16.228C11.7793 16.2359 11.8354 16.2431 11.908 16.2464C12.4484 16.1233 12.9657 15.924 13.4436 15.6559V9.16023C13.4436 8.87252 13.505 8.55772 13.6706 8.25833C14.021 7.62502 15.132 5.85543 17.2809 4.51045C17.6595 4.27346 18.1011 4.1605 18.5498 4.23807C18.9941 4.31488 19.3545 4.56348 19.5951 4.88248C20.0738 5.51731 20.0901 6.41322 19.6239 7.13946C19.4415 7.42347 19.2977 7.67203 19.2029 7.86934C19.1556 7.9677 19.1278 8.03836 19.1134 8.08357C19.1121 8.08754 19.111 8.0911 19.1101 8.09427V11.5C19.1101 12.0523 18.6624 12.5 18.1101 12.5C17.5578 12.5 17.1101 12.0523 17.1101 11.5V8.04747C17.1101 7.65281 17.2753 7.26296 17.4001 7.00325C17.4312 6.93854 17.4645 6.87271 17.4996 6.80611C16.3309 7.74849 15.6798 8.76774 15.4436 9.18543V15.6839C15.4436 16.3258 15.1302 16.9929 14.4973 17.3574C13.8011 17.7584 13.0434 18.0492 12.2523 18.2185L12.043 17.2407L12.212 18.2263C12.1283 18.2407 12.0359 18.2494 11.9374 18.248C11.4198 18.2404 10.8585 18.1322 10.4116 17.7724C9.92311 17.3793 9.73746 16.8236 9.73746 16.2837C9.73746 15.8203 9.75795 11.4787 9.76899 9.17385C9.76829 9.17026 9.76257 9.12999 9.72345 9.0412C9.67454 8.93018 9.59794 8.79677 9.48776 8.62355C9.45555 8.57291 9.41413 8.50937 9.3692 8.44045C9.28959 8.31834 9.19897 8.17932 9.12905 8.06521C9.0094 7.86997 8.86944 7.62244 8.77694 7.35278C8.62792 6.91831 8.55371 6.38773 8.55371 5.74627C8.55371 5.54988 8.58369 5.36196 8.63341 5.18485C6.45296 6.30635 4.57778 8.04163 3.38316 10.0715C4.66687 8.89622 5.65802 8.64378 6.27125 8.64378C6.69049 8.64378 7.19852 8.7507 7.58902 9.15519C7.9728 9.55271 8.07366 10.0635 8.07366 10.4966V17.7694C8.07366 18.2264 7.88767 18.6178 7.58978 18.901C7.4403 19.0432 7.30591 19.1781 7.19532 19.3062C7.16714 19.3388 7.14219 19.3691 7.12017 19.397C8.74472 20.4425 10.732 20.8284 11.6428 20.9535L13.3024 19.3412C13.8483 18.8109 14.6479 18.6364 15.3651 18.891L15.8345 19.0576C16.355 19.2424 16.6271 19.8141 16.4424 20.3345C16.2576 20.855 15.6859 21.1272 15.1655 20.9424L14.696 20.7758L13.0188 22.4051C12.6143 22.7981 12.0381 23.0238 11.4259 22.9424C10.4116 22.8075 7.82276 22.344 5.7234 20.8673C5.37576 20.6227 5.09826 20.2672 5.01668 19.8017C4.94042 19.3667 5.06233 18.9836 5.19447 18.7123C5.40925 18.2713 5.77893 17.8732 6.07366 17.5846V10.6795C5.97169 10.7091 5.83073 10.7633 5.65151 10.8622C5.24732 11.0853 4.63994 11.5415 3.85818 12.4703C3.30168 13.1314 2.42683 13.424 1.65267 13.128C1.25971 12.9778 0.91063 12.6725 0.735687 12.2273C0.56203 11.7853 0.602299 11.3173 0.7639 10.9005C2.48792 6.45379 6.90546 2.89179 11.7503 2.03117ZM11.1625 3.54918C11.1753 3.56866 11.1906 3.59053 11.2088 3.61387C11.1879 3.58711 11.1726 3.56465 11.1625 3.54918ZM11.1271 3.4909C11.1226 3.483 11.1185 3.47544 11.1157 3.47017C11.1176 3.47373 11.1203 3.47866 11.1233 3.48418C11.1244 3.48616 11.1257 3.48841 11.1271 3.4909ZM6.98281 19.6106C6.98275 19.6107 6.98313 19.6094 6.98412 19.6069C6.98337 19.6094 6.98287 19.6106 6.98281 19.6106ZM2.25387 11.2453C2.2538 11.2449 2.25649 11.2435 2.26215 11.2423C2.25677 11.2451 2.25394 11.2457 2.25387 11.2453ZM17.9644 6.00752C17.9645 6.0075 17.9645 6.00861 17.964 6.01088C17.964 6.00867 17.9643 6.00754 17.9644 6.00752ZM19.1048 8.11412C19.1048 8.11413 19.1049 8.11335 19.1053 8.11175ZM12.8829 2.5336C12.8835 2.5347 12.8838 2.53547 12.884 2.53582L12.8841 2.53594C12.8857 2.5391 12.885 2.53768 12.8829 2.5336Z" fill="black"/>
<path d="M19 22V22.01M19 19C19.4483 18.9986 19.8832 18.8468 20.235 18.569C20.5868 18.2911 20.8352 17.9033 20.9406 17.4675C21.0459 17.0318 21.0019 16.5733 20.8158 16.1655C20.6297 15.7576 20.3122 15.424 19.914 15.218C19.5162 15.0142 19.0611 14.951 18.6228 15.0387C18.1845 15.1264 17.7888 15.3598 17.5 15.701" stroke="black" stroke-width="2" stroke-linecap="round" stroke-linejoin="round"/>
</svg>
