<svg width="24" height="24" viewBox="0 0 24 24" fill="none" xmlns="http://www.w3.org/2000/svg">
<path d="M6.27126 9.64376C5.88779 9.64376 4.77289 9.83064 3.09313 11.8263C2.43575 12.6073 1.32726 12.2138 1.69629 11.262C3.29769 7.13152 7.45537 3.78173 11.9981 3.00302C11.9991 3.00283 11.9996 3.0015 11.9988 3.00073V3.00073C11.9983 3.0003 11.9984 2.99974 11.9979 3.00007C11.9787 3.0121 9.55372 4.5304 9.55372 5.74626C9.55372 6.31668 9.6205 6.72993 9.72285 7.02831C9.94785 7.68425 10.7723 8.48007 10.769 9.17352C10.758 11.4796 10.7375 15.8231 10.7375 16.2837C10.7375 16.9024 11.1356 17.2361 11.952 17.2481C11.9824 17.2485 12.0131 17.2458 12.043 17.2407V17.2407C12.7328 17.0931 13.3927 16.8396 13.9983 16.4908C14.2838 16.3264 14.4436 16.0134 14.4436 15.6839V9.16022C14.4436 9.01359 14.4746 8.87073 14.5456 8.74242C14.8509 8.19059 15.8596 6.57971 17.8114 5.35809C18.6254 4.84861 19.3012 5.79112 18.7824 6.59921C18.3964 7.2004 18.1101 7.74746 18.1101 8.04746V16.6567C18.1101 17.0673 18.9202 17.2341 19.2794 17.2497C19.3147 17.2513 19.3496 17.2466 19.3839 17.2381V17.2381C19.9021 17.0881 20.3988 16.8836 20.8657 16.6299C21.6893 16.1825 22.153 16.5032 21.55 17.2208C20.5768 18.379 19.1384 19.7084 17.3104 20.6148C17.0462 20.7457 16.7362 20.7384 16.4709 20.6095L15.0757 19.9319C14.6971 19.748 14.2439 19.8208 13.942 20.1141L12.322 21.6878C12.1176 21.8864 11.8403 21.9887 11.5577 21.9511C10.5843 21.8216 8.19461 21.3829 6.29875 20.0493C5.58299 19.5459 6.26656 18.7793 6.90076 18.1763C7.00927 18.0731 7.07367 17.94 7.07367 17.7693V10.4966C7.07367 9.90874 6.79693 9.64376 6.27126 9.64376Z" stroke="black" stroke-width="2" stroke-linejoin="round"/>
</svg>
