<svg width="24" height="24" viewBox="0 0 24 24" fill="none" xmlns="http://www.w3.org/2000/svg">
<g clip-path="url(#clip0_33_59)">
<path d="M17.7778 21.7788C20 18.976 20.5555 10.007 19.4445 6.0831C19.0741 4.21457 17 0.589615 11.6667 1.03806C6.33331 1.48651 4.99999 6.83052 5 9.44646C5.00005 12.1371 6.85188 16.1732 7.77778 17.8549C8.33327 18.976 11.4815 21.2182 13.3333 22.3393C13.8889 22.6757 16.089 23.9088 17.7778 21.7788Z" stroke="black" stroke-width="2"/>
<path d="M0.875305 16.7191C0.444043 17.0641 0.374122 17.6934 0.719131 18.1247C1.06414 18.556 1.69343 18.6259 2.1247 18.2809L0.875305 16.7191ZM5.68377 14.0513C5.12378 14.238 3.0022 15.0176 0.875305 16.7191L2.1247 18.2809C3.9978 16.7824 5.87622 16.0954 6.31623 15.9487L5.68377 14.0513Z" fill="black"/>
<path d="M13.0995 23.495C13.6491 23.4401 14.05 22.95 13.995 22.4005C13.9401 21.851 13.45 21.45 12.9005 21.505L13.0995 23.495ZM5.68377 14.5513C5.35219 14.6618 5.16587 14.9 5.0753 15.0736C4.98989 15.2373 4.96113 15.3917 4.94919 15.4861C4.92498 15.6775 4.94187 15.8659 4.96187 16.0083C5.00436 16.3107 5.10171 16.6754 5.2342 17.06C5.50245 17.8388 5.96095 18.8323 6.60396 19.8025C7.85699 21.693 10.0335 23.8016 13.0995 23.495L12.9005 21.505C10.9665 21.6984 9.393 20.3903 8.27103 18.6975C7.72654 17.876 7.3413 17.0362 7.12517 16.4087C7.01548 16.0902 6.96048 15.8586 6.94242 15.73C6.93215 15.6569 6.94172 15.6711 6.93338 15.737C6.92938 15.7687 6.91435 15.8725 6.8485 15.9987C6.77749 16.1348 6.61656 16.3486 6.31623 16.4487L5.68377 14.5513Z" fill="black"/>
<path d="M21.7929 19.7071C22.1834 20.0976 22.8166 20.0976 23.2071 19.7071C23.5976 19.3165 23.5976 18.6834 23.2071 18.2929L21.7929 19.7071ZM23.2071 18.2929C22.7321 17.8179 21.6185 16.6912 20.4472 16.1056L19.5528 17.8944C20.3815 18.3088 21.2679 19.1821 21.7929 19.7071L23.2071 18.2929Z" fill="black"/>
<path d="M9 6C10 7 10 8.5 9 10.5C9 11.8333 9.4 14.8 11 16" stroke="black" stroke-width="2" stroke-linecap="round"/>
</g>
<defs>
<clipPath id="clip0_33_59">
<rect width="24" height="24" fill="white"/>
</clipPath>
</defs>
</svg>
