<svg width="23" height="15" viewBox="0 0 23 15" fill="none" xmlns="http://www.w3.org/2000/svg">
    <g clip-path="url(#clip0_33_39)">
        <path
            d="M8.308 0.00200033C8.30567 0.00241136 8.30334 0.00282332 8.301 0.0032362C8.19567 0.0717567 6.46 1.2148 6.46 2.135C6.46 4.032 7.383 3.693 7.383 3.693C7.383 3.693 7.354 9.837 7.354 10.327C7.354 10.817 7.666 11.077 8.306 11.077L8.34 11.071C8.99165 10.9274 9.60805 10.6551 10.153 10.27V7.616C10.153 7.616 10 5 13 4L12.922 10.617C13.2596 11.1106 13.906 11.1253 14.187 11.071C14.8387 10.9274 15.4551 10.6551 16 10.27V4.616L15.999 4.602C15.915 3.884 15.578 3.243 15.077 2.77C16.064 2.77 16.317 3.318 16.317 3.318C16.317 3.318 17.283 1.797 20.615 0.924C20.111 1.57 18.769 3.343 18.769 3.924V10.617C18.769 10.953 19.447 11.079 19.692 11.079L19.731 11.069C20.8066 10.7485 21.7592 10.1081 22.462 9.233C22.462 9.658 20.761 12.514 17.847 13.848L16.001 12.925L14.155 14.771C12.679 14.5878 10.8727 13.464 10.154 12.925L8.308 14.771C8.308 14.771 4.439 14.486 2.769 12.001C3.221 12.07 4.587 12.185 4.587 11.482V5.828C4.587 5.371 4.378 5.165 3.981 5.165C3.584 5.165 2.149 5.438 0 9.232C0 4.82834 3.91184 0.780302 8.301 0.0032362C8.3043 0.00109198 8.306 0 8.306 0L8.308 0.00200033Z"
            fill="black" />
    </g>
    <defs>
        <clipPath id="clip0_33_39">
            <rect width="23" height="15" fill="white" />
        </clipPath>
    </defs>
</svg>